PathFileType	4	(X/Y/Z)	Patient4_TMGait_0pt7_01_left_35.trc.trc
DataRate	CameraRate	NumFrames	NumMarkers	Units	OrigDataRate	OrigDataStartFrame	OrigNumFrames
85.889570552147	85.889570552147	4	33	mm	85.889570552147	89	       141
Frame#	Time	Sacral			L.Shoulder			Chest			R.Shoulder			Neck			R.ASIS			L.ASIS			R.Thigh.Superior			R.Thigh.Lateral			R.Thigh.Inferior			R.Patella			L.Thigh.Superior			L.Thigh.Lateral			L.Thigh.Inferior			L.Patella			L.Shank.Superior			L.Shank.Lateral			L.Shank.Inferior			R.Shank.Superior			R.Shank.Lateral			R.Shank.Inferior			R.Heel			R.Midfoot.Superior			R.Midfoot.Lateral			R.Toe			L.Heel			L.Midfoot.Lateral			L.Midfoot.Superior			L.Toe			L.Elbow			L.Wrist			R.Elbow			R.Wrist			
		X1	Y1	Z1	X2	Y2	Z2	X3	Y3	Z3	X4	Y4	Z4	X5	Y5	Z5	X6	Y6	Z6	X7	Y7	Z7	X8	Y8	Z8	X9	Y9	Z9	X10	Y10	Z10	X11	Y11	Z11	X12	Y12	Z12	X13	Y13	Z13	X14	Y14	Z14	X15	Y15	Z15	X16	Y16	Z16	X17	Y17	Z17	X18	Y18	Z18	X19	Y19	Z19	X20	Y20	Z20	X21	Y21	Z21	X22	Y22	Z22	X23	Y23	Z23	X24	Y24	Z24	X25	Y25	Z25	X26	Y26	Z26	X27	Y27	Z27	X28	Y28	Z28	X29	Y29	Z29	X30	Y30	Z30	X31	Y31	Z31	X32	Y32	Z32	X33	Y33	Z33	

89	41.424571428571	856.089384673540	996.026060750068	512.486612275994	1044.661217532490	1423.613422690050	327.859705942862	1144.399567239741	1348.940579615703	490.134277310042	1061.791161743818	1429.498477120790	661.290476343915	1053.136707580792	1484.464445716882	481.451611251717	1086.164951945857	937.080619297641	629.982590425923	1070.435379792497	951.211926981406	353.920186672610	1151.760034367811	750.362724514317	605.248037483523	1083.226332908435	633.546555675093	662.138772813469	1169.839457390614	592.026687544650	585.055209447016	1181.915703430254	503.078170467867	591.403858503001	1114.973960620226	738.787036823039	377.753905245288	1033.255079666490	622.906896018871	307.722573504567	1121.995091150834	538.936805678680	363.687884459177	1114.181802832271	451.220823149788	359.568677365670	1041.094054731564	394.857744449964	353.453132383141	898.188196148384	363.020000932088	302.962616014172	873.539368295631	237.329608743419	360.996948624525	1160.435040657883	412.319280851745	599.136047563398	1095.641979295663	302.687282715495	657.938717439158	1150.402195539821	212.229469929615	597.753525742655	1031.087797303709	42.497557695155	561.660195027030	1200.367370322217	99.143421357585	600.180515834687	1113.572434233344	36.382435851420	637.101025067385	1320.948321386518	51.004705847736	627.975314767156	676.017146470415	185.526199301749	395.009620574320	733.837003569952	137.358263000546	317.020665730689	838.075305178785	140.450092154054	341.501354755169	911.092982496132	34.188627055747	316.746016259497	1014.161367232574	1077.625644952362	207.641249805839	1260.431310269230	1019.073757745452	246.230230544568	948.403841525635	1100.195365070283	773.496815693518	952.101906599902	838.517650228368	775.398590120235	
90	41.436214285714	855.436421741236	997.662318623554	516.150813883310	1042.412401082729	1425.652925791103	331.270422878110	1144.210309612899	1350.051396108905	491.887988140339	1064.040387802417	1430.029005810397	664.529188570143	1052.929372957116	1485.744199068116	485.117438234807	1086.203565380394	938.660794966486	631.836940660266	1068.828745843375	952.258470914603	356.034544816091	1148.873264261090	749.782061649359	608.805531864748	1078.388437038075	634.005831169649	664.826542000613	1164.690487786756	591.522362105899	587.974884904120	1175.356780077916	502.604430943782	594.176618243567	1119.304854479929	743.381741785081	379.477146932462	1042.421425447179	625.173155502673	308.432694587815	1134.701740808986	543.886352034055	363.330810139379	1129.054372897752	455.144197533998	358.675340995358	1054.949540125258	398.252571888456	353.428465813629	910.386637231002	369.917466184615	305.004162234816	883.769348353376	244.555541489615	362.999433871890	1153.393882309695	412.082114616528	601.532196716037	1087.723226833973	302.560138124414	659.621824188086	1142.402275682125	212.086106776275	599.193003870825	1022.818205880465	42.425172711159	561.997507090106	1192.104830040944	99.155216552176	600.711872267721	1105.264856268272	36.240450996838	637.406648185447	1312.666230448781	51.010928165059	628.249707250736	685.340380726283	198.849584470332	399.937858813126	740.343377705180	149.094786282255	320.617427630819	845.493537849184	147.980150545751	343.581972950231	913.926646108774	36.302665920400	316.555063155208	1004.856537101206	1079.728337410956	212.296168373049	1248.327322825106	1007.665550177767	249.110642969162	958.905889277493	1097.213832518946	777.220949264176	971.618731952869	835.631814750149	776.338694923174	
91	41.447857142857	854.688469581243	999.162363075712	519.638853665835	1040.021421040569	1427.529825723794	334.530998728204	1143.883236049458	1351.017653887565	493.460296166294	1066.232216278339	1430.431708937441	667.586322013770	1052.649828012736	1486.922370598686	488.623967602694	1086.059767434534	940.137943385654	633.641137893285	1067.016988537706	953.225137631774	358.107280113821	1145.756524088993	749.286347583348	612.027760121483	1073.518715190583	634.461049277796	667.422489091570	1159.409776374319	591.029209567345	590.746193766288	1168.666287197172	502.157252745194	596.917684579585	1123.278551518943	748.302593305429	380.907192409850	1050.888683172130	628.108781721716	308.811103065293	1146.556933600436	549.579667971288	362.478467386892	1143.287049456439	459.995409637068	357.291242121927	1068.648718172272	402.302473066647	353.006700897187	922.746249407836	376.323644725510	306.806564405951	895.185514906506	251.163131530617	364.852661890624	1146.287500773993	411.859237125317	603.851188888920	1079.756280150177	302.451348866734	661.238395225914	1134.396045296812	211.956920969069	600.593974517751	1014.541042160881	42.386375677419	562.325588687111	1183.876659265360	99.149352051947	601.262350398919	1096.950764208483	36.093572224834	637.706819464893	1304.400099839292	50.918836438299	628.529160108316	696.528609593006	209.427344177402	404.924057522213	749.153010867675	158.885014460410	324.254316956868	854.972232408844	154.910013171812	345.598614114922	920.107555940975	39.128518303153	316.279405517620	995.651865377635	1081.797633891354	216.797800170103	1235.272418442267	995.454908009706	251.716645675430	969.720471839315	1094.303203420754	780.836996671120	991.741696211114	833.152446303163	777.448353389914	
92	41.459500000000	853.889583567641	1000.502544519423	522.960431637055	1037.542585331529	1429.249906046919	337.642747761349	1143.415944024124	1351.857973192422	494.889760511593	1068.317593489205	1430.733477647719	670.458199777703	1052.315150170723	1488.008401902846	491.960856637167	1085.768351152763	941.518833698525	635.428233928142	1065.029134230127	954.130619544418	360.160788401283	1142.515845291572	748.911682530628	614.866485054994	1068.697272914124	634.917428934257	669.876801144265	1154.086218459910	590.560808805310	593.321417968141	1161.950072415397	501.748575917030	599.538115227825	1126.861679098228	753.493921811633	382.077773425674	1058.584855664303	631.639117065987	308.918156654452	1157.484547521942	555.919874516620	361.199114889562	1156.768169338201	465.686365702416	355.462575665841	1082.089758826972	406.911563596292	352.210379306344	935.178383162412	382.009618377536	308.301851517896	907.775504599109	256.879420778826	366.447151184735	1139.204880430489	411.655701242797	606.028013690715	1071.820077708980	302.384966568953	662.741453768924	1126.432437995764	211.848356293474	601.914053265772	1006.269035959310	42.384556288792	562.638102511086	1175.691253967393	99.141302078464	601.806408862183	1088.647619656067	35.960544333496	637.994335539272	1296.158187627693	50.769721955963	628.802121253739	709.495773893128	216.846772941679	409.703273719298	760.285680693667	166.257375827226	327.729822082288	866.575624819411	160.852714634587	347.412249426629	929.836540451698	42.439103473123	315.899018590641	986.592874186627	1083.816579216232	221.180862556036	1221.164731995364	982.547324668816	254.012654134592	980.830935891600	1091.483648938427	784.234040063179	1012.379081600889	831.156110511008	778.679503401927	
